<?xml version="1.0" encoding="UTF-8"?>
<svg width="68px" height="68px" viewBox="0 0 68 68" version="1.1" xmlns="http://www.w3.org/2000/svg" xmlns:xlink="http://www.w3.org/1999/xlink">
    <!-- Generator: Sketch 52.2 (67145) - http://www.bohemiancoding.com/sketch -->
    <title>social/dribbble</title>
    <desc>Created with Sketch.</desc>
    <defs>
        <filter x="-3.0%" y="-4.8%" width="106.0%" height="109.6%" filterUnits="objectBoundingBox" id="filter-1">
            <feOffset dx="0" dy="2" in="SourceAlpha" result="shadowOffsetOuter1"></feOffset>
            <feGaussianBlur stdDeviation="12" in="shadowOffsetOuter1" result="shadowBlurOuter1"></feGaussianBlur>
            <feColorMatrix values="0 0 0 0 0   0 0 0 0 0   0 0 0 0 0  0 0 0 0.5 0" type="matrix" in="shadowBlurOuter1" result="shadowMatrixOuter1"></feColorMatrix>
            <feMerge>
                <feMergeNode in="shadowMatrixOuter1"></feMergeNode>
                <feMergeNode in="SourceGraphic"></feMergeNode>
            </feMerge>
        </filter>
    </defs>
    <g id="Design" stroke="none" stroke-width="1" fill="none" fill-rule="evenodd">
        <g id="Profile-card-page" transform="translate(-580.000000, -664.000000)" fill="#2D354C">
            <g id="card" filter="url(#filter-1)" transform="translate(-113.000000, -1.000000)">
                <g id="social-media" transform="translate(643.000000, 684.000000)">
                    <g id="social/dribbble" transform="translate(71.000000, 0.000000)">
                        <path d="M13,2 C6.92485351,2 2,6.92485351 2,13 C2,19.0751465 6.92485351,24 13,24 C19.0751465,24 24,19.0751465 24,13 C24,6.92485351 19.0750948,2 13,2 Z M21.8957336,12.2089796 C20.7281107,12.1620595 18.5187267,12.1608696 16.0081124,12.5998599 C15.7813232,12.0561141 15.5496713,11.5346645 15.3168813,11.0371147 C15.4622974,10.9692435 15.6065238,10.9002342 15.7480084,10.8289487 C17.4724132,9.95991779 18.9044338,8.83569729 20.0204808,7.47863505 C21.0964879,8.84123252 21.7444201,10.4735043 21.8957336,12.2089796 Z M18.5517828,6.00383281 C17.5100735,7.33078754 16.1215587,8.39613804 14.3965848,9.1923833 C14.2025414,8.82674781 14.0112915,8.47895955 13.8256803,8.1524845 C12.8762075,6.48265597 11.9702405,5.15368373 11.2925112,4.23173186 C11.8492932,4.124545 12.4203529,4.06924444 13,4.06924444 C15.04162,4.06924444 16.9782776,4.75023279 18.5517828,6.00383281 Z M6.68497634,6.68497634 C7.43005954,5.93989315 8.28372633,5.34296786 9.2101788,4.90832307 C9.86059406,5.75298865 10.9317902,7.2431033 12.0541484,9.2233185 C12.1824415,9.44969385 12.3137351,9.68745003 12.4466323,9.93384531 C11.584223,10.2004675 10.6581843,10.4150998 9.66836125,10.576294 C7.44775158,10.9378944 5.44648181,10.9269275 4.32251996,10.8755067 C4.70465768,9.30231191 5.51104224,7.85896218 6.68497634,6.68497634 Z M4.06924444,13 C4.06924444,12.978842 4.06986522,12.9577357 4.07002041,12.9366294 C4.45164082,12.9569597 4.93734422,12.9736171 5.50354123,12.9736171 C6.69977144,12.9736171 8.25548115,12.8991243 9.94760579,12.6273291 C11.1682531,12.4312164 12.3187013,12.154455 13.3894835,11.8000451 C13.5787677,12.2010647 13.7674828,12.6190004 13.9534561,13.0526623 C12.5818574,13.4216086 11.3226187,13.9042598 10.1932251,14.4956499 C8.3606505,15.455262 6.86789755,16.702137 5.74403917,18.209116 C4.65649602,16.7010506 4.06924444,14.89579 4.06924444,13 Z M7.17254207,19.7682399 C8.74397803,17.4667745 11.2772505,15.8634722 14.7202146,14.9886991 C15.4107215,16.8873343 16.0015425,19.0104309 16.3421919,21.2863411 C15.2940679,21.7089326 14.1641569,21.9307556 13,21.9307556 C10.8376396,21.9307556 8.79255354,21.1674113 7.17254207,19.7682399 Z M19.3149719,19.3149719 C18.9853413,19.6446026 18.6342422,19.9447982 18.2652442,20.2153002 C17.9119207,18.1935449 17.380487,16.2974962 16.7684562,14.5711773 C18.9375935,14.2309935 20.8460576,14.2394774 21.8399157,14.2792586 C21.5690516,16.1793424 20.6963478,17.9336478 19.3149719,19.3149719 Z" id="Shape"></path>
                    </g>
                </g>
            </g>
        </g>
    </g>
</svg>