<?xml version="1.0" encoding="UTF-8"?>
<svg width="69px" height="70px" viewBox="0 0 69 70" version="1.1" xmlns="http://www.w3.org/2000/svg" xmlns:xlink="http://www.w3.org/1999/xlink">
    <!-- Generator: Sketch 52.2 (67145) - http://www.bohemiancoding.com/sketch -->
    <title>social/instagram</title>
    <desc>Created with Sketch.</desc>
    <defs>
        <filter x="-3.0%" y="-4.8%" width="106.0%" height="109.6%" filterUnits="objectBoundingBox" id="filter-1">
            <feOffset dx="0" dy="2" in="SourceAlpha" result="shadowOffsetOuter1"></feOffset>
            <feGaussianBlur stdDeviation="12" in="shadowOffsetOuter1" result="shadowBlurOuter1"></feGaussianBlur>
            <feColorMatrix values="0 0 0 0 0   0 0 0 0 0   0 0 0 0 0  0 0 0 0.5 0" type="matrix" in="shadowBlurOuter1" result="shadowMatrixOuter1"></feColorMatrix>
            <feMerge>
                <feMergeNode in="shadowMatrixOuter1"></feMergeNode>
                <feMergeNode in="SourceGraphic"></feMergeNode>
            </feMerge>
        </filter>
    </defs>
    <g id="Design" stroke="none" stroke-width="1" fill="none" fill-rule="evenodd">
        <g id="Profile-card-page" transform="translate(-509.000000, -663.000000)" fill="#2D354C">
            <g id="card" filter="url(#filter-1)" transform="translate(-113.000000, -1.000000)">
                <g id="social-media" transform="translate(643.000000, 684.000000)">
                    <g id="social/instagram">
                        <path d="M18.5954,2 C21.9433,2 24.6669,4.7236 24.6667,8.07117 L24.6667,17.9287 C24.6667,21.2763 21.9433,23.9999 18.5954,23.9999 L8.73791,23.9999 C5.39034,23.9999 2.66687,21.2764 2.66687,17.9287 L2.66687,8.07117 C2.66687,4.7236 5.39034,2 8.73791,2 L18.5954,2 Z M22.7149,17.9287 L22.7148,17.9287 L22.7148,8.07117 C22.7148,5.7999 20.8668,3.95193 18.5954,3.95193 L8.73791,3.95193 C6.46664,3.95193 4.61881,5.7999 4.61881,8.07117 L4.61881,17.9287 C4.61881,20.2001 6.46664,22.0481 8.73791,22.0479 L18.5956,22.0479 C20.867,22.0479 22.7149,20.2001 22.7149,17.9287 Z M13.6669,7.33142 C16.7927,7.33142 19.3357,9.8744 19.3357,13.0002 C19.3357,16.1259 16.7927,18.6688 13.6669,18.6688 C10.54103,18.6688 7.99805,16.1259 7.99805,13.0002 C7.99805,9.8744 10.54103,7.33142 13.6669,7.33142 Z M13.6669,16.7167 C15.7163,16.7167 17.3837,15.0495 17.3837,13.0001 C17.3837,10.95057 15.7164,9.28323 13.6669,9.28323 C11.61732,9.28323 9.94998,10.95057 9.94998,13.0001 C9.94998,15.0495 11.61746,16.7167 13.6669,16.7167 Z M19.5734,5.67627 C19.9508,5.67627 20.3203,5.82852 20.5858,6.09529 C20.8526,6.36075 21.0048,6.73031 21.0048,7.10769 C21.0048,7.48376 20.8526,7.85333 20.5858,8.12009 C20.319,8.38556 19.9508,8.53911 19.5734,8.53911 C19.1973,8.53911 18.8277,8.38556 18.5623,8.12009 C18.2955,7.85333 18.142,7.48389 18.142,7.10769 C18.142,6.73031 18.2954,6.36075 18.5623,6.09529 C18.8279,5.82852 19.1973,5.67627 19.5734,5.67627 Z" id="Combined-Shape"></path>
                    </g>
                </g>
            </g>
        </g>
    </g>
</svg>