<?xml version="1.0" encoding="UTF-8"?>
<svg width="64px" height="64px" viewBox="0 0 64 64" version="1.1" xmlns="http://www.w3.org/2000/svg" xmlns:xlink="http://www.w3.org/1999/xlink">
    <!-- Generator: Sketch 52.2 (67145) - http://www.bohemiancoding.com/sketch -->
    <title>social/twitter</title>
    <desc>Created with Sketch.</desc>
    <defs>
        <filter x="-3.0%" y="-4.8%" width="106.0%" height="109.6%" filterUnits="objectBoundingBox" id="filter-1">
            <feOffset dx="0" dy="2" in="SourceAlpha" result="shadowOffsetOuter1"></feOffset>
            <feGaussianBlur stdDeviation="12" in="shadowOffsetOuter1" result="shadowBlurOuter1"></feGaussianBlur>
            <feColorMatrix values="0 0 0 0 0   0 0 0 0 0   0 0 0 0 0  0 0 0 0.5 0" type="matrix" in="shadowBlurOuter1" result="shadowMatrixOuter1"></feColorMatrix>
            <feMerge>
                <feMergeNode in="shadowMatrixOuter1"></feMergeNode>
                <feMergeNode in="SourceGraphic"></feMergeNode>
            </feMerge>
        </filter>
    </defs>
    <g id="Design" stroke="none" stroke-width="1" fill="none" fill-rule="evenodd">
        <g id="Profile-card-page" transform="translate(-723.000000, -666.000000)" fill="#2D354C">
            <g id="card" filter="url(#filter-1)" transform="translate(-113.000000, -1.000000)">
                <g id="social-media" transform="translate(643.000000, 684.000000)">
                    <g id="social/twitter" transform="translate(212.000000, 0.000000)">
                        <path d="M24.3331,6.17863 C23.515,6.5375 22.6433,6.77537 21.7344,6.89087 C22.6694,6.33262 23.383,5.45537 23.7185,4.398 C22.8468,4.91775 21.8843,5.28488 20.8585,5.48975 C20.0308,4.60838 18.851,4.0625 17.564,4.0625 C15.067,4.0625 13.0568,6.08925 13.0568,8.57388 C13.0568,8.93138 13.087,9.27512 13.1613,9.60237 C9.41163,9.4195 6.09375,7.62238 3.86488,4.88475 C3.47575,5.55988 3.2475,6.33263 3.2475,7.1645 C3.2475,8.7265 4.05188,10.11112 5.25088,10.91275 C4.52625,10.899 3.81538,10.68863 3.21313,10.35725 C3.21313,10.371 3.21313,10.38887 3.21313,10.40675 C3.21313,12.5985 4.7765,14.419 6.82663,14.8384 C6.4595,14.9387 6.05938,14.9869 5.64413,14.9869 C5.35538,14.9869 5.06388,14.9704 4.79025,14.9099 C5.37463,16.696 7.03288,18.0091 9.00463,18.0517 C7.47013,19.2521 5.52175,19.9754 3.4125,19.9754 C3.04263,19.9754 2.68788,19.9589 2.33313,19.9135 C4.331,21.2019 6.69875,21.9375 9.25213,21.9375 C17.5516,21.9375 22.0891,15.0625 22.0891,9.10325 C22.0891,8.90387 22.0823,8.71138 22.0726,8.52025 C22.9678,7.885 23.7199,7.09163 24.3331,6.17863 Z" id="Path"></path>
                    </g>
                </g>
            </g>
        </g>
    </g>
</svg>