<?xml version="1.0" encoding="UTF-8"?>
<svg width="26px" height="17px" viewBox="0 0 26 17" version="1.1" xmlns="http://www.w3.org/2000/svg" xmlns:xlink="http://www.w3.org/1999/xlink">
    <!-- Generator: Sketch 52.2 (67145) - http://www.bohemiancoding.com/sketch -->
    <title>social/behance</title>
    <desc>Created with Sketch.</desc>
    <g id="Design" stroke="none" stroke-width="1" fill="none" fill-rule="evenodd">
        <g id="Profile-card-page" transform="translate(-815.000000, -689.000000)" fill="#2D354C">
            <g id="social/behance" transform="translate(815.000000, 685.000000)">
                <g id="behance-logo-svgrepo-com" transform="translate(0.000000, 4.000000)">
                    <path d="M10.4715,7.4375 C13.7076875,7.4375 13.4847917,11.4826774 13.4845208,11.4826774 C13.4845208,16.454629 8.37308333,16.2909355 8.37308333,16.2909355 L3.68929167,16.2909355 L3.55170833,16.2909355 L-4.26325641e-14,16.2909355 L-4.26325641e-14,1.77635684e-15 L3.55170833,1.77635684e-15 L3.68929167,1.77635684e-15 L8.37308333,1.77635684e-15 C10.9178333,1.77635684e-15 12.9266042,1.42224194 12.9266042,4.33746774 C12.9266042,7.25296774 10.4715,7.4375 10.4715,7.4375 Z M3.68929167,2.89575806 L3.68929167,6.53101613 L8.08302083,6.53101613 C8.84189583,6.53101613 9.51166667,6.28533871 9.51166667,4.59054839 C9.51166667,2.89575806 8.37335417,2.89575806 8.37335417,2.89575806 L7.77047917,2.89575806 L3.68929167,2.89575806 Z M8.15722917,13.396 C8.82889583,13.3770806 10.0695833,13.1634839 10.0695833,11.2795 C10.0695833,9.02014516 8.37308333,9.04208065 8.37308333,9.04208065 L3.68929167,9.04207269 L3.68929167,13.396 L8.15722917,13.396 Z M16.8404167,0.959677419 L23.479625,0.959677419 L23.479625,2.96595161 L16.8404167,2.96595161 L16.8404167,0.959677419 Z M20.3019375,4.14525806 C26.8149375,4.14525806 25.9027708,11.2164355 25.9027708,11.2164355 L17.5651667,11.2164355 C17.5651667,14.2432581 20.3967292,14.0515968 20.3967292,14.0515968 C23.0712083,14.0515968 22.9766875,12.2992258 22.9766875,12.2992258 L25.8085208,12.2992258 C25.8085208,16.950371 20.3022083,16.6317581 20.3022083,16.6317581 C13.6952292,16.6317581 14.1193542,10.404 14.1193542,10.404 C14.1193542,10.404 14.1138636,4.14525806 20.3019375,4.14525806 Z M22.8190725,9.04208065 C22.8190725,9.04208065 22.85075,6.53074194 20.3647708,6.53101613 C17.8790625,6.53101613 17.5332083,9.04208065 17.5332083,9.04208065 L22.8190725,9.04208065 Z" id="Combined-Shape"></path>
                </g>
            </g>
        </g>
    </g>
</svg>